# xmcd CD database file
# Copyright (C) 1997 Ti Kan
# 
# Track frame offsets:
#     150
#     16795
#     43564
#     55157
#     70505
#     83405
#     103017
#     122902
#     147645
#     164437
#     183127
#     205002
#     219562
#     243045
#     269972
# 
# Disc length: 3683 seconds
# 
# Revision: 1
# Processed by: cddbd v1.4b41PL1 Copyright (c) Steve Scherf et al.
# Submitted via: DiscPlay 4.0.4
# 
DISCID=ce0e610f
DTITLE=Dan and Jeff - Ice Cubes
DYEAR=1900
DGENRE=
TTITLE0=The Brothers Blue
TTITLE1=Baby Please
TTITLE2=E Stomp
TTITLE3=If I Could Forget About You
TTITLE4=Ozark Sunrise
TTITLE5=Comin' Back To You
TTITLE6=Ice Cubes
TTITLE7=Blues In The Morning
TTITLE8=Anything Goes Stomp
TTITLE9=She Called Me Long Distance
TTITLE10=Just Passin' Time
TTITLE11=Sittin' By The Lake
TTITLE12=Talk Goin' Round
TTITLE13=Before I Go
TTITLE14=Welchshire Ave. Rag
EXTD=
EXTT0=
EXTT1=
EXTT2=
EXTT3=
EXTT4=
EXTT5=
EXTT6=
EXTT7=
EXTT8=
EXTT9=
EXTT10=
EXTT11=
EXTT12=
EXTT13=
EXTT14=
PLAYORDER=
